<svg xmlns="http://www.w3.org/2000/svg" xmlns:xlink="http://www.w3.org/1999/xlink" width="414" zoomAndPan="magnify" viewBox="0 0 310.5 310.499999" height="414" preserveAspectRatio="xMidYMid meet" version="1.0"><defs><clipPath id="e6a064aa4d"><path d="M 0 3 L 310 3 L 310 307 L 0 307 Z M 0 3 " clip-rule="nonzero"/></clipPath></defs><g clip-path="url(#e6a064aa4d)"><path fill="#fb8500" d="M 155 3.824219 C 69.402344 3.824219 0 73.210938 0 158.824219 C 0 227.308594 44.40625 285.40625 105.996094 305.90625 C 113.746094 307.339844 116.585938 302.546875 116.585938 298.453125 C 116.585938 294.757812 116.445312 282.554688 116.378906 269.597656 C 73.261719 278.976562 64.15625 251.308594 64.15625 251.308594 C 57.105469 233.390625 46.953125 228.625 46.953125 228.625 C 32.886719 219.003906 48.011719 219.210938 48.011719 219.210938 C 63.574219 220.308594 71.765625 235.1875 71.765625 235.1875 C 85.585938 258.875 108.023438 252.03125 116.871094 248.066406 C 118.265625 238.042969 122.28125 231.207031 126.710938 227.332031 C 92.289062 223.421875 56.097656 210.128906 56.097656 150.738281 C 56.097656 133.816406 62.15625 119.984375 72.074219 109.132812 C 70.460938 105.21875 65.152344 89.460938 73.574219 68.109375 C 73.574219 68.109375 86.59375 63.949219 116.210938 83.996094 C 128.574219 80.5625 141.824219 78.84375 155 78.777344 C 168.175781 78.84375 181.441406 80.5625 193.828125 83.996094 C 223.40625 63.9375 236.414062 68.109375 236.414062 68.109375 C 244.847656 89.460938 239.539062 105.21875 237.9375 109.132812 C 247.871094 119.984375 253.890625 133.816406 253.890625 150.738281 C 253.890625 210.269531 217.632812 223.382812 183.121094 227.21875 C 188.675781 232.023438 193.632812 241.464844 193.632812 255.917969 C 193.632812 276.664062 193.453125 293.351562 193.453125 298.453125 C 193.453125 302.574219 196.242188 307.417969 204.097656 305.894531 C 265.65625 285.367188 310.015625 227.296875 310.015625 158.835938 C 310 73.226562 240.597656 3.824219 155 3.824219 Z M 155 3.824219 " fill-opacity="1" fill-rule="evenodd"/></g><path fill="#fb8500" d="M 58.707031 226.378906 C 58.371094 227.152344 57.15625 227.386719 56.046875 226.855469 C 54.921875 226.351562 54.289062 225.292969 54.652344 224.53125 C 54.988281 223.742188 56.199219 223.523438 57.324219 224.054688 C 58.449219 224.542969 59.09375 225.601562 58.707031 226.378906 Z M 58.707031 226.378906 " fill-opacity="1" fill-rule="nonzero"/><path fill="#fb8500" d="M 64.984375 233.378906 C 64.246094 234.0625 62.800781 233.742188 61.820312 232.667969 C 60.800781 231.582031 60.617188 230.136719 61.367188 229.453125 C 62.128906 228.769531 63.523438 229.089844 64.542969 230.175781 C 65.566406 231.246094 65.757812 232.679688 64.984375 233.378906 Z M 64.984375 233.378906 " fill-opacity="1" fill-rule="nonzero"/><path fill="#fb8500" d="M 71.09375 242.304688 C 70.136719 242.964844 68.585938 242.34375 67.632812 240.972656 C 66.675781 239.59375 66.675781 237.9375 67.65625 237.28125 C 68.613281 236.621094 70.152344 237.214844 71.121094 238.585938 C 72.0625 239.980469 72.0625 241.632812 71.09375 242.304688 Z M 71.09375 242.304688 " fill-opacity="1" fill-rule="nonzero"/><path fill="#fb8500" d="M 79.464844 250.933594 C 78.609375 251.875 76.800781 251.617188 75.484375 250.339844 C 74.128906 249.085938 73.753906 247.316406 74.605469 246.375 C 75.472656 245.429688 77.292969 245.703125 78.625 246.96875 C 79.96875 248.21875 80.367188 250.003906 79.464844 250.933594 Z M 79.464844 250.933594 " fill-opacity="1" fill-rule="nonzero"/><path fill="#fb8500" d="M 91.023438 255.929688 C 90.648438 257.144531 88.90625 257.699219 87.148438 257.183594 C 85.390625 256.65625 84.242188 255.234375 84.605469 254.007812 C 84.964844 252.78125 86.722656 252.210938 88.492188 252.765625 C 90.234375 253.285156 91.386719 254.703125 91.023438 255.929688 Z M 91.023438 255.929688 " fill-opacity="1" fill-rule="nonzero"/><path fill="#fb8500" d="M 103.707031 256.863281 C 103.746094 258.140625 102.261719 259.199219 100.414062 259.226562 C 98.566406 259.265625 97.054688 258.230469 97.042969 256.976562 C 97.042969 255.6875 98.503906 254.640625 100.351562 254.601562 C 102.195312 254.5625 103.707031 255.59375 103.707031 256.863281 Z M 103.707031 256.863281 " fill-opacity="1" fill-rule="nonzero"/><path fill="#fb8500" d="M 115.515625 254.859375 C 115.734375 256.097656 114.453125 257.390625 112.621094 257.726562 C 110.824219 258.0625 109.160156 257.289062 108.925781 256.046875 C 108.707031 254.769531 110.011719 253.492188 111.808594 253.15625 C 113.628906 252.832031 115.28125 253.582031 115.515625 254.859375 Z M 115.515625 254.859375 " fill-opacity="1" fill-rule="nonzero"/></svg>