<svg xmlns="http://www.w3.org/2000/svg" xmlns:xlink="http://www.w3.org/1999/xlink" width="233" zoomAndPan="magnify" viewBox="0 0 174.75 174.749997" height="233" preserveAspectRatio="xMidYMid meet" version="1.0"><defs><clipPath id="5ea11ecebe"><path d="M 0 0 L 174.5 0 L 174.5 174.5 L 0 174.5 Z M 0 0 " clip-rule="nonzero"/></clipPath></defs><g clip-path="url(#5ea11ecebe)"><path fill="#fbc815" d="M 87.105469 15.691406 C 110.359375 15.691406 113.117188 15.78125 122.300781 16.203125 C 131.796875 16.636719 141.574219 18.800781 148.492188 25.71875 C 155.472656 32.699219 157.570312 42.382812 158.007812 51.90625 C 158.425781 61.089844 158.515625 63.847656 158.515625 87.105469 C 158.515625 110.359375 158.425781 113.117188 158.007812 122.300781 C 157.578125 131.746094 155.363281 141.617188 148.492188 148.492188 C 141.507812 155.472656 131.832031 157.570312 122.300781 158.007812 C 113.117188 158.425781 110.359375 158.515625 87.105469 158.515625 C 63.847656 158.515625 61.089844 158.425781 51.90625 158.007812 C 42.535156 157.578125 32.535156 155.3125 25.71875 148.492188 C 18.769531 141.542969 16.636719 131.765625 16.203125 122.300781 C 15.78125 113.117188 15.691406 110.359375 15.691406 87.105469 C 15.691406 63.847656 15.78125 61.089844 16.203125 51.90625 C 16.628906 42.5 18.867188 32.570312 25.71875 25.71875 C 32.6875 18.75 42.40625 16.636719 51.90625 16.203125 C 61.089844 15.78125 63.847656 15.691406 87.105469 15.691406 M 87.105469 0 C 63.449219 0 60.480469 0.101562 51.1875 0.523438 C 37.722656 1.140625 24.351562 4.886719 14.617188 14.617188 C 4.847656 24.390625 1.140625 37.730469 0.523438 51.1875 C 0.101562 60.480469 0 63.449219 0 87.105469 C 0 110.761719 0.101562 113.730469 0.523438 123.019531 C 1.140625 136.46875 4.898438 149.875 14.617188 159.589844 C 24.382812 169.351562 37.746094 173.066406 51.1875 173.683594 C 60.480469 174.105469 63.449219 174.207031 87.105469 174.207031 C 110.761719 174.207031 113.730469 174.105469 123.019531 173.683594 C 136.476562 173.066406 149.863281 169.316406 159.589844 159.589844 C 169.367188 149.8125 173.066406 136.476562 173.683594 123.019531 C 174.105469 113.730469 174.207031 110.761719 174.207031 87.105469 C 174.207031 63.449219 174.105469 60.480469 173.683594 51.1875 C 173.066406 37.722656 169.316406 24.34375 159.589844 14.617188 C 149.839844 4.871094 136.441406 1.132812 123.019531 0.523438 C 113.730469 0.101562 110.761719 0 87.105469 0 Z M 87.105469 0 " fill-opacity="1" fill-rule="nonzero"/></g><path fill="#fbc815" d="M 87.105469 42.375 C 62.402344 42.375 42.375 62.402344 42.375 87.105469 C 42.375 111.804688 62.402344 131.832031 87.105469 131.832031 C 111.804688 131.832031 131.832031 111.804688 131.832031 87.105469 C 131.832031 62.402344 111.804688 42.375 87.105469 42.375 Z M 87.105469 116.136719 C 71.070312 116.136719 58.070312 103.136719 58.070312 87.105469 C 58.070312 71.070312 71.070312 58.070312 87.105469 58.070312 C 103.136719 58.070312 116.136719 71.070312 116.136719 87.105469 C 116.136719 103.136719 103.136719 116.136719 87.105469 116.136719 Z M 87.105469 116.136719 " fill-opacity="1" fill-rule="nonzero"/><path fill="#fbc815" d="M 144.054688 40.605469 C 144.054688 41.292969 143.988281 41.972656 143.855469 42.644531 C 143.71875 43.316406 143.523438 43.972656 143.257812 44.605469 C 142.996094 45.238281 142.675781 45.839844 142.292969 46.410156 C 141.914062 46.984375 141.480469 47.511719 140.992188 47.996094 C 140.507812 48.480469 139.980469 48.914062 139.410156 49.296875 C 138.839844 49.675781 138.238281 50 137.601562 50.261719 C 136.96875 50.523438 136.316406 50.722656 135.640625 50.855469 C 134.96875 50.992188 134.289062 51.058594 133.601562 51.058594 C 132.917969 51.058594 132.238281 50.992188 131.5625 50.855469 C 130.890625 50.722656 130.238281 50.523438 129.601562 50.261719 C 128.96875 50 128.367188 49.675781 127.796875 49.296875 C 127.226562 48.914062 126.695312 48.480469 126.210938 47.996094 C 125.726562 47.511719 125.292969 46.984375 124.910156 46.410156 C 124.53125 45.839844 124.207031 45.238281 123.945312 44.605469 C 123.683594 43.972656 123.484375 43.316406 123.351562 42.644531 C 123.21875 41.972656 123.152344 41.292969 123.152344 40.605469 C 123.152344 39.917969 123.21875 39.238281 123.351562 38.566406 C 123.484375 37.894531 123.683594 37.238281 123.945312 36.605469 C 124.207031 35.972656 124.53125 35.367188 124.910156 34.796875 C 125.292969 34.226562 125.726562 33.699219 126.210938 33.214844 C 126.695312 32.730469 127.226562 32.296875 127.796875 31.914062 C 128.367188 31.53125 128.96875 31.210938 129.601562 30.949219 C 130.238281 30.683594 130.890625 30.488281 131.5625 30.351562 C 132.238281 30.21875 132.917969 30.152344 133.601562 30.152344 C 134.289062 30.152344 134.96875 30.21875 135.640625 30.351562 C 136.316406 30.488281 136.96875 30.683594 137.601562 30.949219 C 138.238281 31.210938 138.839844 31.53125 139.410156 31.914062 C 139.980469 32.296875 140.507812 32.730469 140.992188 33.214844 C 141.480469 33.699219 141.914062 34.226562 142.292969 34.796875 C 142.675781 35.367188 142.996094 35.972656 143.257812 36.605469 C 143.523438 37.238281 143.71875 37.894531 143.855469 38.566406 C 143.988281 39.238281 144.054688 39.917969 144.054688 40.605469 Z M 144.054688 40.605469 " fill-opacity="1" fill-rule="nonzero"/></svg>