<svg xmlns="http://www.w3.org/2000/svg" xmlns:xlink="http://www.w3.org/1999/xlink" width="330" zoomAndPan="magnify" viewBox="0 0 247.5 247.500006" height="330" preserveAspectRatio="xMidYMid meet" version="1.0"><path fill="#fb8500" d="M 122.96875 22.152344 C 155.796875 22.152344 159.6875 22.277344 172.652344 22.875 C 186.058594 23.484375 199.863281 26.542969 209.628906 36.308594 C 219.484375 46.160156 222.445312 59.832031 223.0625 73.277344 C 223.652344 86.242188 223.777344 90.132812 223.777344 122.96875 C 223.777344 155.796875 223.652344 159.6875 223.0625 172.652344 C 222.457031 185.988281 219.328125 199.921875 209.628906 209.628906 C 199.769531 219.484375 186.109375 222.445312 172.652344 223.0625 C 159.6875 223.652344 155.796875 223.777344 122.96875 223.777344 C 90.132812 223.777344 86.242188 223.652344 73.277344 223.0625 C 60.046875 222.457031 45.929688 219.257812 36.308594 209.628906 C 26.496094 199.816406 23.484375 186.015625 22.875 172.652344 C 22.277344 159.6875 22.152344 155.796875 22.152344 122.96875 C 22.152344 90.132812 22.277344 86.242188 22.875 73.277344 C 23.476562 59.996094 26.636719 45.980469 36.308594 36.308594 C 46.144531 26.46875 59.867188 23.484375 73.277344 22.875 C 86.242188 22.277344 90.132812 22.152344 122.96875 22.152344 M 122.96875 0 C 89.570312 0 85.382812 0.144531 72.261719 0.738281 C 53.253906 1.609375 34.378906 6.898438 20.636719 20.636719 C 6.84375 34.433594 1.609375 53.265625 0.738281 72.261719 C 0.144531 85.382812 0 89.570312 0 122.96875 C 0 156.363281 0.144531 160.554688 0.738281 173.667969 C 1.609375 192.65625 6.914062 211.582031 20.636719 225.296875 C 34.421875 239.074219 53.285156 244.320312 72.261719 245.191406 C 85.382812 245.785156 89.570312 245.929688 122.96875 245.929688 C 156.363281 245.929688 160.554688 245.785156 173.667969 245.191406 C 192.664062 244.320312 211.5625 239.027344 225.296875 225.296875 C 239.097656 211.492188 244.320312 192.664062 245.191406 173.667969 C 245.785156 160.554688 245.929688 156.363281 245.929688 122.96875 C 245.929688 89.570312 245.785156 85.382812 245.191406 72.261719 C 244.320312 53.253906 239.027344 34.367188 225.296875 20.636719 C 211.53125 6.875 192.617188 1.597656 173.667969 0.738281 C 160.554688 0.144531 156.363281 0 122.96875 0 Z M 122.96875 0 " fill-opacity="1" fill-rule="nonzero"/><path fill="#fb8500" d="M 122.96875 59.820312 C 88.09375 59.820312 59.820312 88.09375 59.820312 122.96875 C 59.820312 157.835938 88.09375 186.109375 122.96875 186.109375 C 157.835938 186.109375 186.109375 157.835938 186.109375 122.96875 C 186.109375 88.09375 157.835938 59.820312 122.96875 59.820312 Z M 122.96875 163.953125 C 100.332031 163.953125 81.980469 145.597656 81.980469 122.96875 C 81.980469 100.332031 100.332031 81.980469 122.96875 81.980469 C 145.597656 81.980469 163.953125 100.332031 163.953125 122.96875 C 163.953125 145.597656 145.597656 163.953125 122.96875 163.953125 Z M 122.96875 163.953125 " fill-opacity="1" fill-rule="nonzero"/><path fill="#fb8500" d="M 203.363281 57.324219 C 203.363281 58.292969 203.269531 59.253906 203.082031 60.203125 C 202.890625 61.148438 202.613281 62.078125 202.238281 62.96875 C 201.871094 63.863281 201.417969 64.710938 200.875 65.519531 C 200.34375 66.328125 199.730469 67.074219 199.039062 67.757812 C 198.355469 68.441406 197.613281 69.050781 196.808594 69.59375 C 196.003906 70.128906 195.152344 70.585938 194.253906 70.957031 C 193.359375 71.324219 192.441406 71.605469 191.484375 71.792969 C 190.539062 71.988281 189.578125 72.082031 188.605469 72.082031 C 187.640625 72.082031 186.683594 71.988281 185.730469 71.792969 C 184.78125 71.605469 183.859375 71.324219 182.960938 70.957031 C 182.066406 70.585938 181.21875 70.128906 180.414062 69.59375 C 179.609375 69.050781 178.859375 68.441406 178.171875 67.757812 C 177.488281 67.074219 176.878906 66.328125 176.335938 65.519531 C 175.800781 64.710938 175.34375 63.863281 174.976562 62.96875 C 174.605469 62.078125 174.324219 61.148438 174.136719 60.203125 C 173.949219 59.253906 173.855469 58.292969 173.855469 57.324219 C 173.855469 56.351562 173.949219 55.394531 174.136719 54.445312 C 174.324219 53.496094 174.605469 52.570312 174.976562 51.675781 C 175.34375 50.78125 175.800781 49.929688 176.335938 49.125 C 176.878906 48.316406 177.488281 47.574219 178.171875 46.890625 C 178.859375 46.207031 179.609375 45.59375 180.414062 45.054688 C 181.21875 44.511719 182.066406 44.0625 182.960938 43.691406 C 183.859375 43.316406 184.78125 43.039062 185.730469 42.847656 C 186.683594 42.660156 187.640625 42.566406 188.605469 42.566406 C 189.578125 42.566406 190.539062 42.660156 191.484375 42.847656 C 192.441406 43.039062 193.359375 43.316406 194.253906 43.691406 C 195.152344 44.0625 196.003906 44.511719 196.808594 45.054688 C 197.613281 45.59375 198.355469 46.207031 199.039062 46.890625 C 199.730469 47.574219 200.34375 48.316406 200.875 49.125 C 201.417969 49.929688 201.871094 50.78125 202.238281 51.675781 C 202.613281 52.570312 202.890625 53.496094 203.082031 54.445312 C 203.269531 55.394531 203.363281 56.351562 203.363281 57.324219 Z M 203.363281 57.324219 " fill-opacity="1" fill-rule="nonzero"/></svg>