<svg xmlns="http://www.w3.org/2000/svg" xmlns:xlink="http://www.w3.org/1999/xlink" width="330" zoomAndPan="magnify" viewBox="0 0 247.5 247.500006" height="330" preserveAspectRatio="xMidYMid meet" version="1.0"><defs><clipPath id="7177a7f0f2"><path d="M 15.527344 0 L 231 0 L 231 246 L 15.527344 246 Z M 15.527344 0 " clip-rule="nonzero"/></clipPath></defs><g clip-path="url(#7177a7f0f2)"><path fill="#fb8500" d="M 230.203125 101.097656 C 208.28125 101.097656 187.960938 94.089844 171.386719 82.183594 L 171.386719 168.105469 C 171.386719 211.019531 136.472656 245.917969 93.566406 245.917969 C 76.988281 245.917969 61.609375 240.695312 48.96875 231.820312 C 28.90625 217.730469 15.75 194.429688 15.75 168.105469 C 15.75 125.191406 50.660156 90.277344 93.574219 90.277344 C 97.144531 90.277344 100.628906 90.574219 104.058594 91.035156 L 104.058594 134.195312 C 100.738281 133.164062 97.238281 132.558594 93.574219 132.558594 C 73.984375 132.558594 58.039062 148.5 58.039062 168.105469 C 58.039062 181.753906 65.789062 193.609375 77.097656 199.566406 C 82.027344 202.15625 87.632812 203.640625 93.585938 203.640625 C 112.726562 203.640625 128.34375 188.414062 129.0625 169.4375 L 129.09375 0 L 171.375 0 C 171.375 3.667969 171.734375 7.246094 172.367188 10.730469 C 175.351562 26.839844 184.914062 40.660156 198.160156 49.300781 C 207.382812 55.316406 218.386719 58.828125 230.191406 58.828125 L 230.191406 101.097656 Z M 230.203125 101.097656 " fill-opacity="1" fill-rule="nonzero"/></g></svg>