<svg xmlns="http://www.w3.org/2000/svg" xmlns:xlink="http://www.w3.org/1999/xlink" width="233" zoomAndPan="magnify" viewBox="0 0 174.75 174.749997" height="233" preserveAspectRatio="xMidYMid meet" version="1.0"><defs><clipPath id="ca5587f4f3"><path d="M 11 0 L 164 0 L 164 174.5 L 11 174.5 Z M 11 0 " clip-rule="nonzero"/></clipPath></defs><g clip-path="url(#ca5587f4f3)"><path fill="#fbc815" d="M 163.066406 71.613281 C 147.539062 71.613281 133.144531 66.648438 121.402344 58.214844 L 121.402344 119.078125 C 121.402344 149.476562 96.671875 174.199219 66.277344 174.199219 C 54.535156 174.199219 43.640625 170.5 34.6875 164.210938 C 20.476562 154.230469 11.15625 137.726562 11.15625 119.078125 C 11.15625 88.679688 35.886719 63.949219 66.285156 63.949219 C 68.8125 63.949219 71.28125 64.160156 73.710938 64.484375 L 73.710938 95.058594 C 71.359375 94.328125 68.878906 93.898438 66.285156 93.898438 C 52.40625 93.898438 41.113281 105.191406 41.113281 119.078125 C 41.113281 128.746094 46.601562 137.144531 54.613281 141.363281 C 58.105469 143.199219 62.074219 144.25 66.292969 144.25 C 79.851562 144.25 90.914062 133.464844 91.421875 120.023438 L 91.445312 0 L 121.394531 0 C 121.394531 2.597656 121.648438 5.132812 122.097656 7.601562 C 124.210938 19.011719 130.984375 28.800781 140.367188 34.921875 C 146.902344 39.183594 154.695312 41.671875 163.058594 41.671875 L 163.058594 71.613281 Z M 163.066406 71.613281 " fill-opacity="1" fill-rule="nonzero"/></g></svg>