<svg xmlns="http://www.w3.org/2000/svg" xmlns:xlink="http://www.w3.org/1999/xlink" width="330" zoomAndPan="magnify" viewBox="0 0 247.5 247.500006" height="330" preserveAspectRatio="xMidYMid meet" version="1.0"><defs><clipPath id="cbeec6e774"><path d="M 0 0 L 245.636719 0 L 245.636719 246 L 0 246 Z M 0 0 " clip-rule="nonzero"/></clipPath></defs><g clip-path="url(#cbeec6e774)"><path fill="#fb8500" d="M 209.6875 35.738281 C 186.671875 12.707031 156.070312 0.0117188 123.480469 0 C 56.308594 0 1.636719 54.660156 1.609375 121.859375 C 1.597656 143.339844 7.214844 164.304688 17.882812 182.789062 L 0.585938 245.929688 L 65.179688 228.984375 C 82.980469 238.695312 103.027344 243.8125 123.414062 243.820312 L 123.46875 243.820312 C 190.625 243.820312 245.308594 189.152344 245.335938 121.953125 C 245.355469 89.394531 232.691406 58.769531 209.6875 35.738281 Z M 123.480469 223.234375 L 123.4375 223.234375 C 105.261719 223.234375 87.4375 218.347656 71.882812 209.117188 L 68.1875 206.921875 L 29.851562 216.972656 L 40.085938 179.589844 L 37.679688 175.757812 C 27.535156 159.628906 22.183594 140.988281 22.195312 121.859375 C 22.21875 66.015625 67.664062 20.574219 123.53125 20.574219 C 150.578125 20.574219 176.015625 31.128906 195.136719 50.269531 C 214.253906 69.421875 224.78125 94.867188 224.769531 121.929688 C 224.738281 177.796875 179.304688 223.234375 123.480469 223.234375 Z M 179.039062 147.375 C 175.996094 145.847656 161.023438 138.480469 158.226562 137.464844 C 155.4375 136.449219 153.40625 135.9375 151.375 138.980469 C 149.332031 142.027344 143.507812 148.890625 141.726562 150.933594 C 139.957031 152.960938 138.171875 153.214844 135.128906 151.6875 C 132.082031 150.160156 122.269531 146.957031 110.636719 136.570312 C 101.589844 128.5 95.472656 118.527344 93.703125 115.472656 C 91.925781 112.417969 93.515625 110.78125 95.03125 109.265625 C 96.40625 107.902344 98.074219 105.707031 99.601562 103.925781 C 101.140625 102.160156 101.644531 100.894531 102.664062 98.851562 C 103.679688 96.824219 103.175781 95.042969 102.410156 93.515625 C 101.644531 92 95.554688 77.003906 93.023438 70.910156 C 90.554688 64.964844 88.042969 65.777344 86.167969 65.683594 C 84.394531 65.589844 82.363281 65.585938 80.328125 65.585938 C 78.300781 65.585938 74.996094 66.339844 72.210938 69.394531 C 69.421875 72.449219 61.554688 79.816406 61.554688 94.792969 C 61.554688 109.789062 72.464844 124.269531 73.984375 126.296875 C 75.5 128.324219 95.449219 159.089844 126 172.273438 C 133.261719 175.410156 138.945312 177.285156 143.355469 178.691406 C 150.65625 181.007812 157.296875 180.675781 162.539062 179.898438 C 168.390625 179.027344 180.554688 172.53125 183.097656 165.417969 C 185.636719 158.308594 185.636719 152.199219 184.867188 150.941406 C 184.113281 149.65625 182.082031 148.902344 179.039062 147.375 Z M 179.039062 147.375 " fill-opacity="1" fill-rule="evenodd"/></g></svg>