<svg xmlns="http://www.w3.org/2000/svg" xmlns:xlink="http://www.w3.org/1999/xlink" width="233" zoomAndPan="magnify" viewBox="0 0 174.75 174.749997" height="233" preserveAspectRatio="xMidYMid meet" version="1.0"><defs><clipPath id="50470c3454"><path d="M 0 0 L 174 0 L 174 174.5 L 0 174.5 Z M 0 0 " clip-rule="nonzero"/></clipPath></defs><g clip-path="url(#50470c3454)"><path fill="#fbc815" d="M 148.535156 25.316406 C 132.230469 9 110.554688 0.0078125 87.46875 0 C 39.886719 0 1.160156 38.71875 1.140625 86.320312 C 1.132812 101.535156 5.109375 116.386719 12.667969 129.480469 L 0.414062 174.207031 L 46.171875 162.203125 C 58.78125 169.082031 72.980469 172.707031 87.421875 172.710938 L 87.460938 172.710938 C 135.03125 172.710938 173.765625 133.988281 173.785156 86.386719 C 173.800781 63.324219 164.828125 41.628906 148.535156 25.316406 Z M 87.46875 158.128906 L 87.4375 158.128906 C 74.5625 158.128906 61.9375 154.667969 50.917969 148.128906 L 48.300781 146.574219 L 21.144531 153.695312 L 28.394531 127.214844 L 26.691406 124.5 C 19.503906 113.074219 15.714844 99.871094 15.722656 86.320312 C 15.738281 46.761719 47.929688 14.574219 87.503906 14.574219 C 106.664062 14.574219 124.683594 22.050781 138.226562 35.609375 C 151.769531 49.175781 159.226562 67.199219 159.21875 86.371094 C 159.195312 125.945312 127.011719 158.128906 87.46875 158.128906 Z M 126.824219 104.394531 C 124.667969 103.3125 114.0625 98.09375 112.082031 97.375 C 110.105469 96.65625 108.667969 96.292969 107.226562 98.449219 C 105.78125 100.605469 101.65625 105.46875 100.394531 106.914062 C 99.140625 108.351562 97.875 108.53125 95.71875 107.449219 C 93.5625 106.367188 86.609375 104.097656 78.371094 96.742188 C 71.960938 91.023438 67.628906 83.960938 66.375 81.796875 C 65.117188 79.632812 66.242188 78.472656 67.316406 77.398438 C 68.289062 76.433594 69.472656 74.878906 70.554688 73.617188 C 71.644531 72.367188 72 71.46875 72.722656 70.023438 C 73.441406 68.585938 73.085938 67.324219 72.542969 66.242188 C 72 65.167969 67.6875 54.546875 65.894531 50.230469 C 64.144531 46.019531 62.367188 46.59375 61.039062 46.527344 C 59.78125 46.460938 58.34375 46.457031 56.902344 46.457031 C 55.464844 46.457031 53.125 46.992188 51.152344 49.15625 C 49.175781 51.320312 43.601562 56.539062 43.601562 67.148438 C 43.601562 77.769531 51.332031 88.027344 52.40625 89.464844 C 53.480469 90.898438 67.613281 112.691406 89.253906 122.03125 C 94.398438 124.253906 98.421875 125.582031 101.546875 126.578125 C 106.71875 128.21875 111.421875 127.984375 115.136719 127.433594 C 119.28125 126.816406 127.898438 122.214844 129.699219 117.175781 C 131.496094 112.140625 131.496094 107.8125 130.953125 106.921875 C 130.417969 106.011719 128.980469 105.476562 126.824219 104.394531 Z M 126.824219 104.394531 " fill-opacity="1" fill-rule="evenodd"/></g></svg>